<svg xmlns="http://www.w3.org/2000/svg" viewBox="0 0 640 360" width="640" height="360" shape-rendering="geometricPrecision"><rect x="0" y="0" width="640" height="360" fill="#ffffff" /><line x1="74" y1="78" x2="621" y2="78" stroke="#2a2a2a" stroke-width="1" stroke-linecap="round" /><line x1="74" y1="309" x2="621" y2="309" stroke="#2a2a2a" stroke-width="1" stroke-linecap="round" /><line x1="74" y1="78" x2="74" y2="309" stroke="#2a2a2a" stroke-width="1" stroke-linecap="round" /><line x1="621" y1="78" x2="621" y2="309" stroke="#2a2a2a" stroke-width="1" stroke-linecap="round" /><line x1="210" y1="79" x2="210" y2="308" stroke="#e4e4e4" stroke-width="1" stroke-linecap="round" stroke-dasharray="1 3" /><line x1="347" y1="79" x2="347" y2="308" stroke="#e4e4e4" stroke-width="1" stroke-linecap="round" stroke-dasharray="1 3" /><line x1="484" y1="79" x2="484" y2="308" stroke="#e4e4e4" stroke-width="1" stroke-linecap="round" stroke-dasharray="1 3" /><line x1="75" y1="135" x2="620" y2="135" stroke="#e4e4e4" stroke-width="1" stroke-linecap="round" stroke-dasharray="1 3" /><line x1="75" y1="193" x2="620" y2="193" stroke="#e4e4e4" stroke-width="1" stroke-linecap="round" stroke-dasharray="1 3" /><line x1="75" y1="251" x2="620" y2="251" stroke="#e4e4e4" stroke-width="1" stroke-linecap="round" stroke-dasharray="1 3" /><circle cx="74" cy="307" r="1" fill="#2a2a2a" /><text x="74" y="317" fill="#181818" font-size="7" font-family="monospace" dominant-baseline="hanging">1.000</text><circle cx="211" cy="307" r="1" fill="#2a2a2a" /><text x="197" y="317" fill="#181818" font-size="7" font-family="monospace" dominant-baseline="hanging">5.750</text><circle cx="348" cy="307" r="1" fill="#2a2a2a" /><text x="331" y="317" fill="#181818" font-size="7" font-family="monospace" dominant-baseline="hanging">10.500</text><circle cx="484" cy="307" r="1" fill="#2a2a2a" /><text x="467" y="317" fill="#181818" font-size="7" font-family="monospace" dominant-baseline="hanging">15.250</text><circle cx="621" cy="307" r="1" fill="#2a2a2a" /><text x="586" y="317" fill="#181818" font-size="7" font-family="monospace" dominant-baseline="hanging">20.000</text><circle cx="75" cy="78" r="1" fill="#2a2a2a" /><text x="31" y="75" fill="#181818" font-size="7" font-family="monospace" dominant-baseline="hanging">205.00</text><circle cx="75" cy="136" r="1" fill="#2a2a2a" /><text x="31" y="133" fill="#181818" font-size="7" font-family="monospace" dominant-baseline="hanging">183.25</text><circle cx="75" cy="194" r="1" fill="#2a2a2a" /><text x="31" y="191" fill="#181818" font-size="7" font-family="monospace" dominant-baseline="hanging">161.50</text><circle cx="75" cy="251" r="1" fill="#2a2a2a" /><text x="31" y="248" fill="#181818" font-size="7" font-family="monospace" dominant-baseline="hanging">139.75</text><circle cx="75" cy="309" r="1" fill="#2a2a2a" /><text x="31" y="306" fill="#181818" font-size="7" font-family="monospace" dominant-baseline="hanging">118.00</text><text x="348" y="337" fill="#181818" font-size="7" font-family="monospace" dominant-baseline="hanging">x</text><text x="56" y="66" fill="#181818" font-size="7" font-family="monospace" dominant-baseline="hanging">y</text><line x1="74" y1="309" x2="103" y2="301" stroke="#1f77b4" stroke-width="1" stroke-linecap="round" /><line x1="103" y1="301" x2="132" y2="290" stroke="#1f77b4" stroke-width="1" stroke-linecap="round" /><line x1="132" y1="290" x2="160" y2="272" stroke="#1f77b4" stroke-width="1" stroke-linecap="round" /><line x1="160" y1="272" x2="189" y2="253" stroke="#1f77b4" stroke-width="1" stroke-linecap="round" /><line x1="189" y1="253" x2="218" y2="235" stroke="#1f77b4" stroke-width="1" stroke-linecap="round" /><line x1="218" y1="235" x2="247" y2="203" stroke="#1f77b4" stroke-width="1" stroke-linecap="round" /><line x1="247" y1="203" x2="276" y2="184" stroke="#1f77b4" stroke-width="1" stroke-linecap="round" /><line x1="276" y1="184" x2="304" y2="168" stroke="#1f77b4" stroke-width="1" stroke-linecap="round" /><line x1="304" y1="168" x2="333" y2="150" stroke="#1f77b4" stroke-width="1" stroke-linecap="round" /><line x1="333" y1="150" x2="362" y2="168" stroke="#1f77b4" stroke-width="1" stroke-linecap="round" /><line x1="362" y1="168" x2="391" y2="176" stroke="#1f77b4" stroke-width="1" stroke-linecap="round" /><line x1="391" y1="176" x2="419" y2="139" stroke="#1f77b4" stroke-width="1" stroke-linecap="round" /><line x1="419" y1="139" x2="448" y2="118" stroke="#1f77b4" stroke-width="1" stroke-linecap="round" /><line x1="448" y1="118" x2="477" y2="97" stroke="#1f77b4" stroke-width="1" stroke-linecap="round" /><line x1="477" y1="97" x2="506" y2="78" stroke="#1f77b4" stroke-width="1" stroke-linecap="round" /><line x1="506" y1="78" x2="535" y2="97" stroke="#1f77b4" stroke-width="1" stroke-linecap="round" /><line x1="535" y1="97" x2="563" y2="118" stroke="#1f77b4" stroke-width="1" stroke-linecap="round" /><line x1="563" y1="118" x2="592" y2="142" stroke="#1f77b4" stroke-width="1" stroke-linecap="round" /><line x1="592" y1="142" x2="621" y2="166" stroke="#1f77b4" stroke-width="1" stroke-linecap="round" /><circle cx="74" cy="309" r="2" fill="#1f77b4" /><circle cx="621" cy="166" r="2" fill="#1f77b4" /><line x1="74" y1="267" x2="103" y2="282" stroke="#ff7f0e" stroke-width="1" stroke-linecap="round" /><line x1="103" y1="282" x2="132" y2="280" stroke="#ff7f0e" stroke-width="1" stroke-linecap="round" /><line x1="132" y1="280" x2="160" y2="285" stroke="#ff7f0e" stroke-width="1" stroke-linecap="round" /><line x1="160" y1="285" x2="189" y2="298" stroke="#ff7f0e" stroke-width="1" stroke-linecap="round" /><line x1="189" y1="298" x2="218" y2="272" stroke="#ff7f0e" stroke-width="1" stroke-linecap="round" /><line x1="218" y1="272" x2="247" y2="251" stroke="#ff7f0e" stroke-width="1" stroke-linecap="round" /><line x1="247" y1="251" x2="276" y2="256" stroke="#ff7f0e" stroke-width="1" stroke-linecap="round" /><line x1="276" y1="256" x2="304" y2="237" stroke="#ff7f0e" stroke-width="1" stroke-linecap="round" /><line x1="304" y1="237" x2="333" y2="227" stroke="#ff7f0e" stroke-width="1" stroke-linecap="round" /><line x1="333" y1="227" x2="362" y2="208" stroke="#ff7f0e" stroke-width="1" stroke-linecap="round" /><line x1="362" y1="208" x2="391" y2="190" stroke="#ff7f0e" stroke-width="1" stroke-linecap="round" /><line x1="391" y1="190" x2="419" y2="176" stroke="#ff7f0e" stroke-width="1" stroke-linecap="round" /><line x1="419" y1="176" x2="448" y2="160" stroke="#ff7f0e" stroke-width="1" stroke-linecap="round" /><line x1="448" y1="160" x2="477" y2="147" stroke="#ff7f0e" stroke-width="1" stroke-linecap="round" /><line x1="477" y1="147" x2="506" y2="168" stroke="#ff7f0e" stroke-width="1" stroke-linecap="round" /><line x1="506" y1="168" x2="535" y2="182" stroke="#ff7f0e" stroke-width="1" stroke-linecap="round" /><line x1="535" y1="182" x2="563" y2="197" stroke="#ff7f0e" stroke-width="1" stroke-linecap="round" /><line x1="563" y1="197" x2="592" y2="203" stroke="#ff7f0e" stroke-width="1" stroke-linecap="round" /><line x1="592" y1="203" x2="621" y2="208" stroke="#ff7f0e" stroke-width="1" stroke-linecap="round" /><circle cx="74" cy="267" r="2" fill="#ff7f0e" /><circle cx="621" cy="208" r="2" fill="#ff7f0e" /><text x="12" y="8" fill="#282828" font-size="7" font-family="monospace" dominant-baseline="hanging">examples/latency-demo.csv  points: 40  series: 2</text><line x1="502" y1="27" x2="515" y2="27" stroke="#1f77b4" stroke-width="1" stroke-linecap="round" /><circle cx="509" cy="27" r="1" fill="#1f77b4" /><text x="522" y="24" fill="#1f77b4" font-size="7" font-family="monospace" dominant-baseline="hanging">api (20 pts)</text><line x1="502" y1="37" x2="515" y2="37" stroke="#ff7f0e" stroke-width="1" stroke-linecap="round" /><circle cx="509" cy="37" r="1" fill="#ff7f0e" /><text x="522" y="34" fill="#ff7f0e" font-size="7" font-family="monospace" dominant-baseline="hanging">worker (20 pts)</text></svg>
