<svg xmlns="http://www.w3.org/2000/svg" viewBox="0 0 640 360" width="640" height="360"><rect x="52" y="16" width="572" height="320" fill="none" stroke="#000" /><line x1="52" y1="336" x2="624" y2="336" stroke="#444" /><line x1="52" y1="16" x2="52" y2="336" stroke="#444" /><path d="M 52.00 336.00 L 82.11 324.97 L 112.21 310.25 L 142.32 284.51 L 172.42 258.76 L 202.53 233.01 L 232.63 188.87 L 262.74 163.13 L 292.84 141.06 L 322.95 115.31 L 353.05 141.06 L 383.16 152.09 L 413.26 100.60 L 443.37 71.17 L 473.47 41.75 L 503.58 16.00 L 533.68 41.75 L 563.79 71.17 L 593.89 104.28 L 624.00 137.38" fill="none" stroke="#1f77b4" stroke-width="2" /><path d="M 52.00 277.15 L 82.11 299.22 L 112.21 295.54 L 142.32 302.90 L 172.42 321.29 L 202.53 284.51 L 232.63 255.08 L 262.74 262.44 L 292.84 236.69 L 322.95 221.98 L 353.05 196.23 L 383.16 170.48 L 413.26 152.09 L 443.37 130.02 L 473.47 111.63 L 503.58 141.06 L 533.68 159.45 L 563.79 181.52 L 593.89 188.87 L 624.00 196.23" fill="none" stroke="#ff7f0e" stroke-width="2" /><text x="20" y="18" font-size="12" font-family="monospace">points: 40</text></svg>